<svg xmlns="http://www.w3.org/2000/svg" width="20" height="12" viewBox="0 0 20 12">
  <defs>
    <style>
      .a {
        opacity: 0.02;
      }

      .b {
        fill: #fff;
        fill-rule: evenodd;
      }
    </style>
  </defs>
  <g class="a">
    <path class="b"
      d="M6,12a6,6,0,0,0-.27-1.785,6,6,0,0,0,8.54,0A6,6,0,0,0,14,12h2a4,4,0,0,1,4-4V6a5.981,5.981,0,0,0-4.27,1.785,6.036,6.036,0,0,0,0-3.57A5.981,5.981,0,0,0,20,6V4a4,4,0,0,1-4-4H14a6,6,0,0,0,.27,1.785,6,6,0,0,0-8.54,0A6,6,0,0,0,6,0H4A4,4,0,0,1,0,4V6A5.982,5.982,0,0,1,4.27,7.785a6.036,6.036,0,0,1,0-3.57A5.982,5.982,0,0,1,0,6V8a4,4,0,0,1,4,4ZM2,12a2,2,0,0,0-2-2v2Zm16,0a2,2,0,0,1,2-2v2ZM0,2A2,2,0,0,0,2,0H0ZM20,2a2,2,0,0,1-2-2h2ZM10,10A4,4,0,1,0,6,6,4,4,0,0,0,10,10Zm0-2A2,2,0,1,0,8,6,2,2,0,0,0,10,8Z" />
  </g>
</svg>